<svg width="480" height="480" viewBox="0 0 480 480" fill="none" xmlns="http://www.w3.org/2000/svg">
<rect x="1.92" y="1.92" width="476.16" height="476.16" rx="23.08" fill="white" stroke="#9A9FAA" stroke-width="3.84"/>
<path d="M35.1488 302V265.264H50.1056C58.0826 265.264 63.383 270.04 63.383 277.492C63.383 284.892 58.0826 289.667 50.1056 289.667H43.0208V302H35.1488ZM49.3709 271.824H43.0208V283.107H49.3709C53.0445 283.107 55.4061 280.956 55.4061 277.492C55.4061 273.976 53.0445 271.824 49.3709 271.824ZM67.2178 302V265.264H74.6174V302H67.2178ZM105.489 295.755H106.329V302H102.55C98.7193 302 97.5122 300.163 97.5647 297.592C95.6754 300.583 92.9465 302.315 88.7481 302.315C82.9228 302.315 78.7244 299.533 78.7244 294.39C78.7244 288.67 83.0278 285.416 91.1097 285.416H96.4626V284.104C96.4626 281.69 94.7308 280.116 91.6345 280.116C88.7481 280.116 86.8063 281.428 86.4914 283.422H79.3542C79.879 278.174 84.7071 274.71 91.8444 274.71C99.4015 274.71 103.757 278.069 103.757 284.524V294.076C103.757 295.492 104.335 295.755 105.489 295.755ZM96.4626 290.874V290.349H91.0572C87.9609 290.349 86.1766 291.609 86.1766 293.866C86.1766 295.755 87.6985 296.962 90.165 296.962C94.0486 296.962 96.4102 294.548 96.4626 290.874ZM111.133 294.285V281.27H106.672V275.025H111.133V267.468H118.533V275.025H124.726V281.27H118.533V293.078C118.533 294.968 119.268 295.755 121.209 295.755H124.883V302H118.848C113.705 302 111.133 299.428 111.133 294.285ZM132.034 272.139C129.62 272.139 127.73 270.355 127.73 267.993C127.73 265.579 129.62 263.795 132.034 263.795C134.448 263.795 136.337 265.579 136.337 267.993C136.337 270.355 134.448 272.139 132.034 272.139ZM128.308 302V275.025H135.76V302H128.308ZM156.346 274.71C162.171 274.71 167.156 277.807 167.156 287.043V302H159.757V287.778C159.757 283.212 158.025 280.798 154.299 280.798C150.468 280.798 148.264 283.527 148.264 288.198V302H140.864V275.025H147.319L148.001 278.384C149.733 276.285 152.2 274.71 156.346 274.71ZM189.82 288.513V275.025H197.219V302H190.659L189.977 298.746C188.245 300.845 185.884 302.315 182.053 302.315C176.49 302.315 171.347 299.533 171.347 289.982V275.025H178.746V288.985C178.746 293.813 180.321 296.175 183.994 296.175C187.668 296.175 189.82 293.498 189.82 288.513ZM234.639 274.71C240.202 274.71 244.61 277.859 244.61 286.518V302H237.211V286.938C237.211 282.897 235.741 280.798 232.54 280.798C229.339 280.798 227.187 283.16 227.187 287.253V302H219.787V286.938C219.787 282.897 218.318 280.798 215.064 280.798C211.863 280.798 209.764 283.265 209.764 287.306V302H202.364V275.025H208.819L209.501 278.384C211.128 276.285 213.49 274.763 217.426 274.71C220.732 274.658 223.828 275.865 225.508 279.276C227.397 276.39 230.546 274.71 234.639 274.71ZM260.753 272.034V265.264H289.88V272.034H279.226V302H271.354V272.034H260.753ZM306.347 275.025H307.606V281.743H304.668C300.259 281.743 298.58 284.682 298.58 288.775V302H291.18V275.025H297.898L298.58 279.066C300.049 276.652 302.149 275.025 306.347 275.025ZM328.912 288.513V275.025H336.312V302H329.752L329.07 298.746C327.338 300.845 324.976 302.315 321.145 302.315C315.582 302.315 310.439 299.533 310.439 289.982V275.025H317.839V288.985C317.839 293.813 319.413 296.175 323.087 296.175C326.76 296.175 328.912 293.498 328.912 288.513ZM340.197 293.026H347.229C347.492 295.388 349.538 297.014 353.159 297.014C356.256 297.014 358.145 296.017 358.145 294.128C358.145 291.924 356.308 291.766 351.952 291.189C345.655 290.454 340.774 289.037 340.774 283.475C340.774 278.122 345.445 274.605 352.372 274.658C359.615 274.658 364.6 277.859 364.967 283.37H357.883C357.673 281.218 355.626 279.906 352.635 279.906C349.748 279.906 347.859 280.956 347.859 282.687C347.859 284.734 350.168 284.944 354.052 285.416C360.244 286.046 365.387 287.463 365.387 293.551C365.387 298.904 360.349 302.315 353.107 302.315C345.602 302.315 340.512 298.799 340.197 293.026ZM371.227 294.285V281.27H366.766V275.025H371.227V267.468H378.627V275.025H384.819V281.27H378.627V293.078C378.627 294.968 379.361 295.755 381.303 295.755H384.977V302H378.942C373.798 302 371.227 299.428 371.227 294.285ZM401.321 302.315C392.347 302.315 386.942 296.909 386.942 288.565C386.942 280.168 392.452 274.71 400.797 274.71C408.878 274.71 414.336 279.748 414.441 287.673C414.441 288.46 414.389 289.352 414.231 290.192H394.656V290.559C394.814 294.39 397.28 296.7 401.006 296.7C403.998 296.7 406.097 295.388 406.727 292.868H414.022C413.182 298.116 408.511 302.315 401.321 302.315ZM394.814 285.364H406.989C406.464 282.058 404.208 280.221 400.849 280.221C397.648 280.221 395.234 282.163 394.814 285.364ZM438.06 278.384V265.264H445.46V302H439.005L438.27 298.274C436.486 300.583 433.862 302.315 429.978 302.315C422.736 302.315 417.436 297.014 417.436 288.46C417.436 280.116 422.736 274.71 429.926 274.71C433.652 274.71 436.328 276.18 438.06 278.384ZM431.605 296.28C435.646 296.28 438.165 293.131 438.165 288.565C438.165 283.947 435.646 280.746 431.605 280.746C427.564 280.746 424.993 283.894 424.993 288.513C424.993 293.131 427.564 296.28 431.605 296.28ZM33.6794 343.93L41.3939 344.035C41.6563 347.603 44.4902 350.07 49.0035 350.07C52.6246 350.07 55.3011 348.495 55.3011 345.609C55.3011 342.513 52.3098 341.883 46.1696 340.676C39.977 339.521 34.519 337.527 34.519 330.075C34.519 323.567 39.9245 318.949 48.2163 318.949C56.8755 318.949 62.3859 323.462 62.4909 330.495H54.7763C54.409 327.398 52.0474 325.247 48.2163 325.247C44.8576 325.247 42.4435 326.664 42.4435 329.498C42.4435 332.489 45.3299 333.119 51.4176 334.273C57.7152 335.428 63.2781 337.317 63.2256 344.717C63.1731 351.592 57.5053 356.315 48.8986 356.315C39.5571 356.315 33.7318 351.382 33.6794 343.93ZM80.7014 356.315C71.7273 356.315 66.3219 350.909 66.3219 342.565C66.3219 334.168 71.8323 328.71 80.1766 328.71C88.2585 328.71 93.7165 333.748 93.8214 341.673C93.8214 342.46 93.7689 343.352 93.6115 344.192H74.0365V344.559C74.1939 348.39 76.6605 350.7 80.3865 350.7C83.3779 350.7 85.4771 349.388 86.1069 346.868H93.4016C92.5619 352.116 87.8912 356.315 80.7014 356.315ZM74.1939 339.364H86.3693C85.8445 336.058 83.5878 334.221 80.2291 334.221C77.0278 334.221 74.6137 336.163 74.1939 339.364ZM113.032 329.025H114.291V335.743H111.353C106.944 335.743 105.265 338.682 105.265 342.775V356H97.8653V329.025H104.583L105.265 333.066C106.734 330.652 108.834 329.025 113.032 329.025ZM125.194 356L115.485 329.025H123.409L129.917 348.443L136.32 329.025H144.087L134.378 356H125.194ZM150.279 326.139C147.865 326.139 145.975 324.355 145.975 321.993C145.975 319.579 147.865 317.795 150.279 317.795C152.693 317.795 154.582 319.579 154.582 321.993C154.582 324.355 152.693 326.139 150.279 326.139ZM146.553 356V329.025H154.005V356H146.553ZM171.809 356.315C163.255 356.315 158.059 351.014 158.059 342.513C158.059 334.168 163.517 328.71 172.072 328.71C179.419 328.71 183.985 332.699 185.034 339.101H177.32C176.69 336.425 174.853 334.746 171.967 334.746C168.083 334.746 165.617 337.947 165.617 342.513C165.617 347.131 168.083 350.28 171.967 350.28C174.853 350.28 176.795 348.548 177.32 345.819H185.087C184.037 352.274 179.156 356.315 171.809 356.315ZM202.318 356.315C193.344 356.315 187.938 350.909 187.938 342.565C187.938 334.168 193.449 328.71 201.793 328.71C209.875 328.71 215.333 333.748 215.438 341.673C215.438 342.46 215.385 343.352 215.228 344.192H195.653V344.559C195.81 348.39 198.277 350.7 202.003 350.7C204.994 350.7 207.093 349.388 207.723 346.868H215.018C214.178 352.116 209.507 356.315 202.318 356.315ZM195.81 339.364H207.985C207.461 336.058 205.204 334.221 201.845 334.221C198.644 334.221 196.23 336.163 195.81 339.364ZM238.272 356H230.137L243.572 319.264H253.019L266.349 356H257.899L255.065 347.971H241.106L238.272 356ZM248.033 327.661L243.205 341.62H252.914L248.033 327.661ZM272.672 356L263.855 329.025H271.674L277.08 348.023L282.17 329.025H288.835L293.769 348.076L299.279 329.025H306.836L297.967 356H290.095L285.372 339.731L280.544 356H272.672ZM333.91 349.755H334.75V356H330.972C327.14 356 325.933 354.163 325.986 351.592C324.097 354.583 321.368 356.315 317.169 356.315C311.344 356.315 307.146 353.533 307.146 348.39C307.146 342.67 311.449 339.416 319.531 339.416H324.884V338.104C324.884 335.69 323.152 334.116 320.056 334.116C317.169 334.116 315.228 335.428 314.913 337.422H307.775C308.3 332.174 313.128 328.71 320.266 328.71C327.823 328.71 332.179 332.069 332.179 338.524V348.076C332.179 349.492 332.756 349.755 333.91 349.755ZM324.884 344.874V344.349H319.478C316.382 344.349 314.598 345.609 314.598 347.866C314.598 349.755 316.12 350.962 318.586 350.962C322.47 350.962 324.831 348.548 324.884 344.874ZM352.779 329.025H354.039V335.743H351.1C346.692 335.743 345.012 338.682 345.012 342.775V356H337.613V329.025H344.33L345.012 333.066C346.482 330.652 348.581 329.025 352.779 329.025ZM376.048 332.384V319.264H383.447V356H376.992L376.258 352.274C374.473 354.583 371.849 356.315 367.966 356.315C360.724 356.315 355.423 351.014 355.423 342.46C355.423 334.116 360.724 328.71 367.913 328.71C371.639 328.71 374.316 330.18 376.048 332.384ZM369.593 350.28C373.634 350.28 376.153 347.131 376.153 342.565C376.153 337.947 373.634 334.746 369.593 334.746C365.552 334.746 362.98 337.894 362.98 342.513C362.98 347.131 365.552 350.28 369.593 350.28Z" fill="#292F36"/>
<path d="M32.9091 445.2V440.395L44.425 430.87C47.0659 428.706 48.711 426.887 48.711 424.42C48.711 421.432 46.7628 419.874 43.9921 419.874C41.0915 419.874 39.1 421.865 39.1 425.156V425.632H32.8226V424.766C32.8226 419.051 37.1085 414.636 44.0354 414.636C51.1354 414.636 54.9885 418.489 54.9885 424.16C54.9885 428.619 52.5641 431.347 48.7543 434.42L41.9573 439.962H55.1616V445.2H32.9091ZM57.8251 430.74V429.355C57.8251 420.307 62.977 414.636 70.2935 414.636C77.6532 414.636 82.8051 420.307 82.8051 429.355V430.74C82.8051 439.962 77.6532 445.46 70.2935 445.46C62.977 445.46 57.8251 439.962 57.8251 430.74ZM76.5709 430.524V429.572C76.5709 423.337 74.0166 419.917 70.2935 419.917C66.6136 419.917 64.0593 423.337 64.0593 429.572V430.524C64.0593 436.801 66.6136 440.178 70.2935 440.178C74.0166 440.178 76.5709 436.801 76.5709 430.524ZM85.2071 445.2V440.395L96.723 430.87C99.3639 428.706 101.009 426.887 101.009 424.42C101.009 421.432 99.0608 419.874 96.2901 419.874C93.3895 419.874 91.398 421.865 91.398 425.156V425.632H85.1206V424.766C85.1206 419.051 89.4065 414.636 96.3334 414.636C103.433 414.636 107.286 418.489 107.286 424.16C107.286 428.619 104.862 431.347 101.052 434.42L94.2553 439.962H107.46V445.2H85.2071ZM122.894 424.55C128.999 424.55 133.112 428.749 133.112 434.94C133.112 441.91 127.916 445.46 121.639 445.46C114.626 445.46 110.296 441.001 110.037 435.459H116.227C116.53 438.187 118.435 440.351 121.682 440.351C124.323 440.351 126.834 438.533 126.834 434.94C126.834 431.736 124.799 429.485 121.639 429.485C119.951 429.485 117.613 430.134 116.53 432.645H110.513L111.379 414.895H131.293V420.134H117.05L116.704 426.757C118.219 425.372 120.21 424.55 122.894 424.55Z" fill="#9A9FAA"/>
<path d="M307.398 426.133H293.371C293.988 423.282 296.612 421.384 300.298 421.384C303.985 421.384 306.336 423.064 307.398 426.133M316.286 432.389V431.436C316.286 420.26 309.749 413.387 300.197 413.387C296.12 413.387 292.152 415.066 289.13 418.081C286.169 421.041 284.553 424.899 284.553 429.085C284.553 433.272 286.06 437.13 288.966 440.207C292.043 443.449 295.729 445.011 300.306 445.011C307.015 445.011 311.983 441.824 314.888 435.568H305.164C303.821 436.74 302.368 437.247 300.579 437.247C296.721 437.247 294.433 435.568 293.652 432.389H316.278H316.286Z" fill="#292F36"/>
<path d="M340.796 426.133H326.769C327.386 423.282 330.01 421.384 333.697 421.384C337.383 421.384 339.726 423.064 340.796 426.133M349.684 432.389V431.436C349.684 420.26 343.147 413.387 333.595 413.387C329.518 413.387 325.551 415.066 322.528 418.081C319.568 421.041 317.951 424.899 317.951 429.085C317.951 433.272 319.459 437.13 322.364 440.207C325.441 443.449 329.128 445.011 333.705 445.011C340.414 445.011 345.381 441.824 348.286 435.568H338.563C337.219 436.74 335.766 437.247 333.986 437.247C330.127 437.247 327.839 435.568 327.058 432.389H349.684V432.389Z" fill="#292F36"/>
<path d="M272.042 420.991V444.289H280.704V420.991H284.226V414.29H280.704V413.564C280.704 410.822 281.321 409.932 284 409.932H284.226V403.895C283.726 403.895 283.273 403.84 282.828 403.84C275.447 403.84 271.987 406.745 271.987 413.173C271.987 413.509 272.042 413.9 272.042 414.29H268.801V420.999H272.042V420.991Z" fill="#292F36"/>
<path d="M353.05 420.992V444.29H361.711V420.992H365.234V414.291H361.711V413.565C361.711 410.823 362.329 409.933 365.007 409.933H365.226V403.895C364.726 403.895 364.273 403.841 363.828 403.841C356.455 403.841 352.987 406.746 352.987 413.174C352.987 413.51 353.042 413.9 353.042 414.291H349.801V421H353.042L353.05 420.992Z" fill="#292F36"/>
<path d="M388.132 429.318C388.132 433.395 384.946 436.691 381.04 436.691C377.135 436.691 373.941 433.395 373.941 429.318C373.941 425.241 377.128 421.89 381.04 421.89C384.953 421.89 388.132 425.186 388.132 429.318ZM396.903 429.099C396.903 425.022 395.169 420.883 391.991 417.868C388.976 415.017 385.235 413.51 380.869 413.51C376.792 413.51 372.824 415.189 369.801 418.204C366.841 421.164 365.225 425.022 365.225 429.208C365.225 433.395 366.732 437.253 369.637 440.276C372.715 443.517 376.401 445.079 380.978 445.079C385.555 445.079 389.304 443.462 392.381 440.385C395.396 437.37 396.903 433.621 396.903 429.099" fill="#292F36"/>
<path d="M410.442 424.229C406.193 423.971 402.772 420.558 402.538 416.301H421.126V416.098C421.126 408.796 416.464 403.93 410.012 403.93C403.202 403.93 398.578 408.92 398.578 415.403C398.578 421.526 403.366 426.923 409.895 426.923C414.644 426.923 418.416 424.291 420.439 419.418H418.565C417.213 422.268 414.316 424.236 410.95 424.236C410.778 424.236 410.622 424.236 410.45 424.221" fill="#FFD100"/>
<path d="M434.048 424.229C438.297 423.971 441.717 420.558 441.952 416.301H423.363V416.098C423.363 408.796 428.026 403.93 434.477 403.93C441.288 403.93 445.912 408.92 445.912 415.403C445.912 421.526 441.124 426.923 434.594 426.923C429.854 426.923 426.081 424.291 424.051 419.418H425.933C427.284 422.268 430.182 424.236 433.548 424.236C433.72 424.236 433.876 424.236 434.048 424.221" fill="#FFD100"/>
<path d="M32.0117 94.4004L107.212 169.6L182.412 94.4004H32.0117Z" fill="#D9D9D9"/>
<path d="M32.0117 94.4012H107.212V19.2012L32.0117 94.4012Z" fill="url(#paint0_linear_4164_137)"/>
<path d="M182.411 94.4004H107.211V169.6L182.411 94.4004Z" fill="#9A9FAA"/>
<path d="M160.689 223.078L107.214 169.603L53.7383 223.078H160.689Z" fill="#9A9FAA"/>
<defs>
<linearGradient id="paint0_linear_4164_137" x1="32.0117" y1="56.8012" x2="107.212" y2="56.8012" gradientUnits="userSpaceOnUse">
<stop offset="0.4062" stop-color="#C4C4C4"/>
<stop offset="1" stop-color="#D9D9D9" stop-opacity="0"/>
</linearGradient>
</defs>
</svg>
